<svg xmlns="http://www.w3.org/2000/svg" viewBox="0 0 512 512" role="img" aria-label="Ares">
    <defs>
        <linearGradient id="bg" x1="96" y1="64" x2="416" y2="448" gradientUnits="userSpaceOnUse">
            <stop offset="0" stop-color="#0f172a"/>
            <stop offset="1" stop-color="#020617"/>
        </linearGradient>
        <linearGradient id="accent" x1="144" y1="96" x2="368" y2="416" gradientUnits="userSpaceOnUse">
            <stop offset="0" stop-color="#22d3ee"/>
            <stop offset="1" stop-color="#38bdf8"/>
        </linearGradient>
    </defs>
    <rect width="512" height="512" rx="112" fill="url(#bg)"/>
    <path d="M166 368 244 144c4-11 12-17 22-17s18 6 22 17l78 224c4 12-1 24-12 28-11 4-23-1-27-12l-15-43h-95l-15 43c-4 11-16 16-27 12-11-4-16-16-12-28Zm65-96h50l-25-73-25 73Z" fill="url(#accent)"/>
    <circle cx="368" cy="148" r="24" fill="#22d3ee" opacity="0.95"/>
</svg>
